<svg xmlns="http://www.w3.org/2000/svg" width="1144" height="1080" viewBox="0 0 1144 1080">
  <!-- Vector curves traced from the original brand artwork. Keep this canvas size for the existing header crop. -->
  <title>805 Shutters</title>
  <defs><clipPath id="wordmark"><rect width="286" height="166"/></clipPath></defs>
  <g transform="scale(4)" clip-path="url(#wordmark)">
    <path d="M 59.252 39.104 C 45.310 46.005, 45.966 62.533, 60.502 70.608 C 62.323 71.619, 62.053 71.939, 57.378 74.308 C 36.282 84.999, 44.830 109.767, 69.500 109.432 C 82.862 109.250, 92 101.148, 92 89.482 C 92 82.102, 86.939 75.323, 78.384 71.243 C 75.257 69.752, 73.877 68, 75.829 68 C 78.066 68, 85.988 61.545, 87.399 58.572 C 94.063 44.527, 74.972 31.323, 59.252 39.104 M 131.493 39.351 C 125.489 42.147, 120.635 47.419, 117.132 54.946 C 113.079 63.656, 113.228 83.745, 117.413 92.808 C 127.305 114.232, 153.486 114.828, 164.065 93.870 C 173.961 74.268, 167.666 46.876, 151.541 39.367 C 144.928 36.288, 138.083 36.282, 131.493 39.351 M 197.465 38.056 C 197.274 38.366, 196.409 45.118, 195.545 53.060 C 194.680 61.002, 193.765 68.737, 193.511 70.250 C 192.959 73.543, 194.165 73.731, 198.060 70.957 C 201.191 68.728, 209.327 67.363, 213.398 68.385 C 224.133 71.079, 229.640 89.891, 222.684 100.108 C 218.809 105.799, 215.560 107.502, 208.604 107.484 C 199.277 107.459, 194.275 103.592, 196.995 98.510 C 199.791 93.286, 195.038 87.846, 190.928 91.565 C 186.718 95.376, 190.177 103.023, 197.876 106.924 C 212.779 114.475, 231.840 105.627, 233.647 90.319 C 235.644 73.404, 218.844 61.436, 201.432 67.368 C 198.808 68.263, 196.462 68.795, 196.219 68.552 C 195.976 68.309, 196.389 63.023, 197.138 56.805 L 198.500 45.500 212 45 C 226.080 44.479, 229.364 43.579, 230.524 39.926 C 231.420 37.101, 230.971 36.889, 226.801 38.169 C 224.303 38.936, 219.322 39.001, 210.509 38.383 C 203.526 37.893, 197.657 37.746, 197.465 38.056 M 62 40.279 C 58.352 42.101, 55.804 47.647, 56.312 52.659 C 56.895 58.413, 60.070 62.398, 66.628 65.607 C 71.905 68.188, 72.352 68.250, 74.854 66.745 C 83.921 61.292, 84.654 44.975, 76.033 40.517 C 72.490 38.685, 65.429 38.565, 62 40.279 M 132.036 42.750 C 119.323 55.534, 120.163 96.669, 133.313 105.285 C 142.745 111.466, 152.760 105.871, 157.074 92.012 C 162.837 73.493, 158.538 46.956, 148.814 41.028 C 143.099 37.544, 136.544 38.217, 132.036 42.750 M 59.898 75.270 C 50.355 81.645, 50.519 98.072, 60.198 105.298 C 68.937 111.823, 83.656 105.913, 85.475 95.148 C 86.851 87.003, 82.237 80.811, 70.839 75.505 C 64.300 72.461, 64.109 72.457, 59.898 75.270 M 39.223 145.557 C 35.577 148.110, 36.349 151.567, 41.250 154.637 C 47.347 158.456, 48.064 159.793, 45.429 162.429 C 44.564 163.293, 44.307 164, 44.857 164 C 46.673 164, 49 160.898, 49 158.477 C 49 156.776, 47.698 155.200, 44.442 152.960 C 41.046 150.624, 39.962 149.273, 40.192 147.662 C 40.629 144.594, 44.392 144.294, 46.403 147.166 C 47.972 149.405, 48 149.408, 48 147.339 C 48 146.001, 47.180 145.014, 45.750 144.630 C 42.422 143.738, 41.665 143.846, 39.223 145.557 M 61.500 153.997 L 61.500 163.997 64.500 163.919 C 66.150 163.877, 66.938 163.615, 66.250 163.338 C 65.549 163.055, 65 161.114, 65 158.917 L 65 155 70 155 L 75 155 75 158.917 C 75 161.114, 74.451 163.055, 73.750 163.338 C 73.063 163.615, 74.300 163.871, 76.500 163.906 C 79.092 163.947, 80.023 163.667, 79.146 163.111 C 78.123 162.463, 77.878 160.017, 78.146 153.126 C 78.485 144.373, 78.413 143.999, 76.373 143.999 C 74.443 144, 74.293 144.418, 74.753 148.500 L 75.260 153 70 153 L 64.740 153 65.247 148.500 C 65.707 144.418, 65.557 144, 63.627 143.999 C 61.599 143.998, 61.500 144.465, 61.500 153.997 M 92.548 146.152 C 92.924 147.335, 93.517 151.493, 93.866 155.391 C 94.449 161.906, 94.728 162.587, 97.324 163.829 C 103.978 167.012, 108 163.305, 108 153.988 C 108 150.209, 108.450 146.840, 109 146.500 C 110.612 145.504, 110.149 144, 108.231 144 C 106.664 144, 106.504 144.847, 106.833 151.373 C 107.274 160.098, 106.117 163.007, 102.215 162.985 C 97.477 162.958, 96.603 161.666, 96.173 154.048 C 95.908 149.367, 96.191 146.475, 97.009 145.489 C 98.060 144.223, 97.767 144, 95.055 144 C 92.245 144, 91.947 144.256, 92.548 146.152 M 121.032 146.840 C 121.061 149.265, 121.181 149.345, 122.392 147.750 C 123.123 146.787, 124.683 146, 125.860 146 C 127.877 146, 128 146.483, 128 154.417 C 128 160.214, 127.611 162.990, 126.750 163.338 C 126.063 163.615, 127.300 163.842, 129.500 163.842 C 131.700 163.842, 132.938 163.615, 132.250 163.338 C 131.389 162.990, 131 160.214, 131 154.417 C 131 145.287, 132.065 143.939, 136.273 147.747 C 138.135 149.432, 138.191 149.405, 137.852 146.997 C 137.511 144.580, 137.236 144.495, 129.250 144.340 L 121 144.179 121.032 146.840 M 148.482 144.851 C 148.217 145.116, 148.014 146.271, 148.032 147.417 C 148.061 149.361, 148.152 149.383, 149.392 147.750 C 150.123 146.787, 151.683 146, 152.860 146 C 154.877 146, 155 146.483, 155 154.417 C 155 160.214, 154.611 162.990, 153.750 163.338 C 153.063 163.615, 154.300 163.842, 156.500 163.842 C 158.700 163.842, 159.938 163.615, 159.250 163.338 C 158.389 162.990, 158 160.214, 158 154.417 C 158 146.483, 158.123 146, 160.140 146 C 161.317 146, 162.877 146.787, 163.608 147.750 C 164.823 149.350, 164.939 149.281, 164.968 146.934 C 165 144.391, 164.931 144.368, 156.982 144.368 C 152.573 144.368, 148.748 144.586, 148.482 144.851 M 177.500 153.955 L 177.500 163.997 183.643 163.998 C 188.420 164, 189.926 163.635, 190.417 162.357 C 191.304 160.044, 190.054 159.153, 188.875 161.258 C 188.243 162.389, 186.690 163, 184.450 163 C 181.081 163, 181 162.904, 181 158.925 C 181 154.927, 181.062 154.855, 184.250 155.175 C 186.617 155.412, 187.500 155.092, 187.500 154 C 187.500 152.908, 186.617 152.588, 184.250 152.825 C 181.129 153.138, 181 153.009, 181 149.575 C 181 146.326, 181.255 146, 183.800 146 C 185.340 146, 187.184 146.563, 187.897 147.250 C 188.946 148.261, 189.126 148.118, 188.837 146.500 C 188.540 144.831, 187.571 144.451, 182.990 144.207 L 177.500 143.913 177.500 153.955 M 203.854 153.089 C 204.122 160.012, 203.877 162.463, 202.854 163.111 C 201.977 163.667, 202.908 163.947, 205.500 163.906 C 207.700 163.871, 208.938 163.615, 208.250 163.338 C 207.543 163.052, 207 161.100, 207 158.843 C 207 153.522, 209.596 153.932, 212.812 159.761 C 214.564 162.938, 215.757 164, 217.575 164 C 219.978 164, 219.982 163.982, 218.053 162.053 C 214.398 158.398, 212.837 154.381, 214.526 152.978 C 217.826 150.240, 215.953 145.852, 211 144.715 L 208.500 144.141 210.750 145.693 C 214.635 148.371, 212.633 155.224, 208.436 153.614 C 207.254 153.160, 206.926 151.916, 207.157 148.752 C 207.420 145.149, 207.165 144.456, 205.484 144.213 C 203.607 143.941, 203.519 144.421, 203.854 153.089 M 233.165 145.597 C 229.620 148.080, 230.627 151.854, 235.750 155.285 C 240.393 158.395, 241.229 161.272, 237.993 163.004 C 236.349 163.884, 235.537 163.628, 233.493 161.584 L 231 159.091 231 161.437 C 231 165.595, 238.499 165.719, 241.903 161.617 C 244.108 158.961, 242.404 155.247, 237.935 152.967 C 233.265 150.584, 232.096 148.475, 234.252 146.320 C 236.191 144.380, 239.369 145.330, 240.789 148.272 C 241.851 150.472, 241.866 150.466, 241.932 147.867 C 241.982 145.950, 241.388 145.069, 239.750 144.630 C 236.412 143.736, 235.666 143.845, 233.165 145.597 M 37 161.499 C 37 163.178, 37.714 163.904, 39.750 164.295 C 43.305 164.978, 43.306 164.965, 39.897 161.865 L 37 159.230 37 161.499 M 64.250 217.731 C 62.261 218.424, 62.798 220.597, 65.250 221.780 L 67.500 222.865 65 222.963 C 62.721 223.052, 62.664 223.156, 64.356 224.139 C 65.769 224.961, 66.571 224.858, 67.722 223.706 C 69.070 222.358, 68.981 222.060, 66.889 220.941 C 64.697 219.767, 64.668 219.643, 66.449 219.018 C 67.904 218.508, 68.016 218.225, 66.927 217.822 C 66.142 217.532, 64.938 217.491, 64.250 217.731 M 109.250 217.731 C 107.435 218.364, 107.719 220.737, 109.750 221.920 C 111.369 222.863, 111.354 222.941, 109.550 222.970 C 108.098 222.992, 107.889 223.289, 108.733 224.133 C 110.162 225.562, 113 224.541, 113 222.599 C 113 221.794, 111.987 220.800, 110.750 220.391 L 108.500 219.647 111 219.028 C 112.771 218.589, 113.062 218.246, 112 217.851 C 111.175 217.545, 109.938 217.491, 109.250 217.731 M 137.250 217.746 C 135.759 218.248, 135.568 223.615, 137.009 224.506 C 138.468 225.407, 141.721 224.169, 142.376 222.462 C 143.557 219.384, 140.565 216.631, 137.250 217.746 M 156.250 217.731 C 154.261 218.424, 154.798 220.597, 157.250 221.780 L 159.500 222.865 157.050 222.932 C 155.225 222.983, 154.889 223.289, 155.733 224.133 C 157.162 225.562, 160 224.541, 160 222.599 C 160 221.794, 158.988 220.800, 157.750 220.391 L 155.500 219.647 158 219.028 C 159.771 218.589, 160.062 218.246, 159 217.851 C 158.175 217.545, 156.938 217.491, 156.250 217.731 M 20.187 221.250 C 20.449 223.966, 20.910 224.500, 23 224.500 C 25.090 224.500, 25.551 223.966, 25.813 221.250 C 26.107 218.209, 25.925 218, 23 218 C 20.075 218, 19.893 218.209, 20.187 221.250 M 30.359 220.992 C 30.488 224.193, 34 227.165, 34 224.073 C 34 223.483, 33.355 223, 32.566 223 C 31.778 223, 30.927 221.762, 30.676 220.250 C 30.333 218.188, 30.254 218.373, 30.359 220.992 M 38 221 C 38 222.650, 38.450 224, 39 224 C 39.550 224, 40 222.650, 40 221 C 40 219.350, 39.550 218, 39 218 C 38.450 218, 38 219.350, 38 221 M 43 221 C 43 222.650, 43.450 224, 44 224 C 44.550 224, 45 223.255, 45 222.345 C 45 220.805, 45.127 220.805, 46.829 222.345 C 49.407 224.678, 50 224.427, 50 221 C 50 217.882, 48.024 216.667, 47.968 219.750 C 47.938 221.417, 47.873 221.417, 46.608 219.750 C 44.594 217.097, 43 217.650, 43 221 M 53 220.968 C 53 224.529, 54.874 225.673, 57.983 224.009 C 61.369 222.197, 60.291 218.576, 56.250 218.187 C 53.216 217.894, 53 218.079, 53 220.968 M 116.831 221.250 C 117.098 223.037, 117.508 223.938, 117.741 223.250 C 118.246 221.768, 121 221.556, 121 223 C 121 223.550, 121.450 224, 122 224 C 122.550 224, 123 222.650, 123 221 C 123 219.350, 122.550 218, 122 218 C 121.450 218, 121 218.450, 121 219 C 121 219.550, 120.325 220, 119.500 220 C 118.675 220, 118 219.550, 118 219 C 118 218.450, 117.628 218, 117.173 218 C 116.718 218, 116.565 219.463, 116.831 221.250 M 127.220 220.800 C 126.281 223.493, 126.368 223.600, 129.500 223.600 C 132.632 223.600, 132.719 223.493, 131.780 220.800 C 131.244 219.260, 130.217 218, 129.500 218 C 128.783 218, 127.756 219.260, 127.220 220.800 M 146.187 221.250 C 146.487 224.360, 151 227.004, 151 224.070 C 151 223.481, 150.213 222.968, 149.250 222.930 C 147.761 222.870, 147.798 222.737, 149.500 222.037 C 151.456 221.233, 151.458 221.198, 149.573 220.432 C 147.671 219.660, 147.671 219.641, 149.573 218.895 C 151.169 218.270, 151.017 218.128, 148.687 218.070 C 146.103 218.006, 145.899 218.266, 146.187 221.250 M 199 221.031 C 199 224.940, 201.483 225.962, 204.251 223.193 C 206.764 220.680, 205.281 218, 201.378 218 C 199.397 218, 199 218.506, 199 221.031 M 209 221.056 C 209 223.688, 209.247 224.040, 210.411 223.074 C 211.376 222.273, 212.027 222.235, 212.470 222.951 C 213.636 224.839, 214.594 224.054, 214.546 221.250 C 214.509 219.007, 213.993 218.442, 211.750 218.184 C 209.259 217.897, 209 218.167, 209 221.056 M 219.161 220.547 C 218.522 221.948, 218.001 223.185, 218.003 223.297 C 218.005 223.409, 219.550 223.533, 221.437 223.572 L 224.868 223.645 223.408 220.822 C 221.604 217.334, 220.652 217.273, 219.161 220.547 M 228 220.934 C 228 222.620, 228.450 224, 229 224 C 229.550 224, 230 223.602, 230 223.117 C 230 222.631, 230.947 221.986, 232.105 221.683 C 234.954 220.938, 233.987 218.576, 230.673 218.184 C 228.288 217.901, 228 218.198, 228 220.934 M 237.187 221.250 C 237.487 224.360, 242 227.004, 242 224.070 C 242 223.481, 240.988 222.955, 239.750 222.900 C 237.608 222.805, 237.619 222.766, 240 222.077 L 242.500 221.353 240 220.500 L 237.500 219.647 240 218.923 L 242.500 218.199 239.687 218.100 C 237.099 218.008, 236.898 218.260, 237.187 221.250 M 246.015 221.250 C 246.026 223.589, 246.285 224.098, 246.939 223.064 C 247.658 221.928, 248.152 221.881, 249.303 222.836 C 250.501 223.831, 250.843 223.603, 251.236 221.546 C 251.812 218.534, 251.375 218, 248.333 218 C 246.364 218, 246.002 218.508, 246.015 221.250 M 255 218.263 C 255 218.543, 255.584 219.897, 256.297 221.272 L 257.594 223.772 259.251 220.886 C 260.747 218.278, 260.013 216.551, 258.470 219.049 C 258.027 219.765, 257.376 219.727, 256.411 218.926 C 255.635 218.282, 255 217.984, 255 218.263 M 22.813 219.683 C 23.534 219.972, 24.397 219.936, 24.729 219.604 C 25.061 219.272, 24.471 219.036, 23.417 219.079 C 22.252 219.127, 22.015 219.364, 22.813 219.683 M 55 221 C 55 222.111, 55.667 223, 56.500 223 C 57.333 223, 58 222.111, 58 221 C 58 219.889, 57.333 219, 56.500 219 C 55.667 219, 55 219.889, 55 221 M 87.500 220 C 87.101 220.646, 87.224 221.624, 87.774 222.174 C 88.441 222.841, 89.016 222.783, 89.500 222 C 89.899 221.354, 89.776 220.376, 89.226 219.826 C 88.559 219.159, 87.984 219.217, 87.500 220 M 138 221 C 138 222.111, 138.667 223, 139.500 223 C 140.333 223, 141 222.111, 141 221 C 141 219.889, 140.333 219, 139.500 219 C 138.667 219, 138 219.889, 138 221 M 178.500 220 C 178.101 220.646, 178.224 221.624, 178.774 222.174 C 179.441 222.841, 180.016 222.783, 180.500 222 C 180.899 221.354, 180.776 220.376, 180.226 219.826 C 179.559 219.159, 178.984 219.217, 178.500 220 M 200.173 220.659 C 200.594 222.848, 203.500 223.157, 203.500 221.014 C 203.500 220.196, 202.672 219.368, 201.659 219.173 C 200.323 218.916, 199.916 219.323, 200.173 220.659 M 210 220 C 210 220.550, 210.675 221, 211.500 221 C 212.325 221, 213 220.550, 213 220 C 213 219.450, 212.325 219, 211.500 219 C 210.675 219, 210 219.450, 210 220 M 229.500 220 C 229.840 220.550, 230.541 221, 231.059 221 C 231.577 221, 232 220.550, 232 220 C 232 219.450, 231.298 219, 230.441 219 C 229.584 219, 229.160 219.450, 229.500 220 M 247 220 C 247 220.550, 247.675 221, 248.500 221 C 249.325 221, 250 220.550, 250 220 C 250 219.450, 249.325 219, 248.500 219 C 247.675 219, 247 219.450, 247 220 M 22.813 222.683 C 23.534 222.972, 24.397 222.936, 24.729 222.604 C 25.061 222.272, 24.471 222.036, 23.417 222.079 C 22.252 222.127, 22.015 222.364, 22.813 222.683" stroke="none" fill="#111111" fill-rule="evenodd"/>
  </g>
</svg>
